<svg id="visual" viewBox="0 0 540 2000" width="540" height="2000" xmlns="http://www.w3.org/2000/svg" xmlns:xlink="http://www.w3.org/1999/xlink" version="1.1"><rect x="0" y="0" width="540" height="2000" fill="#001220"></rect><g fill="#2bca51"><circle r="20" cx="374" cy="1536"></circle><circle r="2" cx="487" cy="292"></circle><circle r="2" cx="51" cy="19"></circle><circle r="3" cx="248" cy="177"></circle><circle r="16" cx="529" cy="403"></circle><circle r="12" cx="447" cy="1067"></circle><circle r="2" cx="296" cy="1522"></circle><circle r="13" cx="229" cy="1266"></circle><circle r="5" cx="103" cy="832"></circle><circle r="5" cx="360" cy="414"></circle><circle r="11" cx="412" cy="1831"></circle><circle r="11" cx="423" cy="1225"></circle><circle r="6" cx="534" cy="1903"></circle><circle r="12" cx="344" cy="1758"></circle><circle r="14" cx="409" cy="1654"></circle><circle r="9" cx="421" cy="1977"></circle><circle r="16" cx="38" cy="759"></circle><circle r="15" cx="423" cy="153"></circle><circle r="4" cx="211" cy="112"></circle><circle r="9" cx="146" cy="1229"></circle><circle r="3" cx="283" cy="615"></circle><circle r="7" cx="462" cy="1810"></circle><circle r="13" cx="23" cy="1221"></circle><circle r="4" cx="90" cy="140"></circle><circle r="16" cx="12" cy="279"></circle><circle r="17" cx="98" cy="391"></circle><circle r="11" cx="369" cy="777"></circle><circle r="5" cx="90" cy="35"></circle><circle r="9" cx="477" cy="835"></circle><circle r="9" cx="486" cy="449"></circle><circle r="4" cx="469" cy="918"></circle><circle r="1" cx="79" cy="1234"></circle><circle r="11" cx="300" cy="414"></circle><circle r="16" cx="319" cy="277"></circle><circle r="16" cx="509" cy="198"></circle><circle r="18" cx="506" cy="1616"></circle><circle r="1" cx="365" cy="297"></circle><circle r="10" cx="151" cy="871"></circle><circle r="1" cx="263" cy="462"></circle><circle r="5" cx="531" cy="733"></circle><circle r="7" cx="157" cy="1160"></circle><circle r="1" cx="393" cy="35"></circle><circle r="16" cx="272" cy="1717"></circle><circle r="7" cx="119" cy="973"></circle><circle r="18" cx="180" cy="643"></circle><circle r="5" cx="195" cy="1780"></circle><circle r="12" cx="424" cy="443"></circle><circle r="2" cx="442" cy="1293"></circle><circle r="11" cx="5" cy="589"></circle><circle r="8" cx="192" cy="503"></circle><circle r="8" cx="274" cy="913"></circle><circle r="14" cx="52" cy="186"></circle><circle r="3" cx="309" cy="1614"></circle><circle r="10" cx="467" cy="1021"></circle><circle r="7" cx="263" cy="1087"></circle><circle r="14" cx="378" cy="1248"></circle><circle r="12" cx="528" cy="578"></circle><circle r="1" cx="508" cy="1703"></circle><circle r="12" cx="67" cy="850"></circle><circle r="10" cx="515" cy="785"></circle><circle r="13" cx="447" cy="1172"></circle><circle r="12" cx="460" cy="1961"></circle><circle r="5" cx="151" cy="489"></circle><circle r="12" cx="214" cy="1963"></circle><circle r="8" cx="258" cy="217"></circle><circle r="10" cx="154" cy="1015"></circle><circle r="16" cx="187" cy="573"></circle><circle r="16" cx="190" cy="197"></circle><circle r="17" cx="481" cy="1659"></circle><circle r="12" cx="419" cy="785"></circle><circle r="17" cx="358" cy="639"></circle><circle r="6" cx="235" cy="1447"></circle><circle r="15" cx="228" cy="1569"></circle><circle r="18" cx="370" cy="178"></circle><circle r="11" cx="175" cy="1197"></circle><circle r="7" cx="403" cy="691"></circle><circle r="18" cx="50" cy="505"></circle><circle r="17" cx="173" cy="1482"></circle><circle r="17" cx="444" cy="198"></circle><circle r="11" cx="472" cy="123"></circle><circle r="8" cx="116" cy="1307"></circle><circle r="15" cx="330" cy="828"></circle><circle r="4" cx="182" cy="68"></circle><circle r="12" cx="456" cy="607"></circle><circle r="13" cx="286" cy="565"></circle><circle r="2" cx="217" cy="325"></circle><circle r="6" cx="67" cy="638"></circle><circle r="6" cx="328" cy="1216"></circle><circle r="3" cx="58" cy="1873"></circle><circle r="15" cx="338" cy="591"></circle><circle r="9" cx="284" cy="1255"></circle><circle r="11" cx="538" cy="664"></circle><circle r="11" cx="272" cy="663"></circle><circle r="2" cx="467" cy="1231"></circle><circle r="18" cx="531" cy="1300"></circle><circle r="6" cx="536" cy="916"></circle><circle r="12" cx="403" cy="856"></circle><circle r="4" cx="186" cy="1116"></circle><circle r="13" cx="428" cy="1922"></circle><circle r="9" cx="312" cy="468"></circle><circle r="3" cx="272" cy="1847"></circle><circle r="9" cx="357" cy="1966"></circle><circle r="7" cx="105" cy="254"></circle><circle r="8" cx="117" cy="1173"></circle><circle r="1" cx="191" cy="1045"></circle><circle r="8" cx="111" cy="1446"></circle><circle r="1" cx="2" cy="724"></circle><circle r="6" cx="63" cy="569"></circle><circle r="9" cx="280" cy="1464"></circle><circle r="1" cx="7" cy="1324"></circle><circle r="2" cx="391" cy="1695"></circle><circle r="2" cx="323" cy="1855"></circle><circle r="15" cx="525" cy="92"></circle><circle r="2" cx="72" cy="908"></circle><circle r="18" cx="181" cy="1854"></circle><circle r="8" cx="282" cy="1423"></circle><circle r="1" cx="537" cy="1131"></circle><circle r="9" cx="168" cy="1993"></circle><circle r="5" cx="17" cy="1699"></circle><circle r="18" cx="243" cy="617"></circle><circle r="16" cx="246" cy="1152"></circle><circle r="11" cx="428" cy="275"></circle><circle r="3" cx="509" cy="1099"></circle><circle r="1" cx="383" cy="1000"></circle><circle r="17" cx="221" cy="880"></circle><circle r="5" cx="161" cy="533"></circle><circle r="13" cx="458" cy="751"></circle><circle r="18" cx="28" cy="1775"></circle><circle r="11" cx="15" cy="861"></circle><circle r="16" cx="10" cy="1659"></circle><circle r="12" cx="227" cy="1494"></circle><circle r="8" cx="529" cy="1649"></circle><circle r="6" cx="13" cy="1274"></circle><circle r="5" cx="485" cy="1490"></circle><circle r="11" cx="406" cy="1167"></circle><circle r="4" cx="316" cy="1952"></circle><circle r="4" cx="231" cy="487"></circle><circle r="3" cx="148" cy="1915"></circle><circle r="5" cx="439" cy="55"></circle><circle r="11" cx="324" cy="1796"></circle><circle r="4" cx="319" cy="1099"></circle><circle r="8" cx="318" cy="1556"></circle><circle r="10" cx="85" cy="1058"></circle><circle r="10" cx="342" cy="1325"></circle><circle r="5" cx="162" cy="1618"></circle><circle r="14" cx="30" cy="676"></circle><circle r="17" cx="75" cy="782"></circle><circle r="10" cx="235" cy="1026"></circle><circle r="4" cx="482" cy="78"></circle><circle r="13" cx="263" cy="1784"></circle><circle r="13" cx="160" cy="322"></circle><circle r="4" cx="109" cy="352"></circle><circle r="13" cx="466" cy="557"></circle><circle r="1" cx="217" cy="1080"></circle><circle r="8" cx="268" cy="528"></circle><circle r="18" cx="423" cy="1332"></circle><circle r="3" cx="447" cy="693"></circle><circle r="3" cx="276" cy="1002"></circle><circle r="1" cx="358" cy="1068"></circle><circle r="13" cx="253" cy="12"></circle><circle r="5" cx="509" cy="139"></circle><circle r="7" cx="112" cy="1538"></circle><circle r="7" cx="423" cy="1559"></circle><circle r="4" cx="56" cy="59"></circle><circle r="7" cx="20" cy="1068"></circle><circle r="2" cx="217" cy="1728"></circle><circle r="11" cx="193" cy="745"></circle><circle r="3" cx="391" cy="1417"></circle><circle r="1" cx="473" cy="27"></circle><circle r="8" cx="230" cy="1678"></circle><circle r="11" cx="143" cy="1121"></circle><circle r="5" cx="472" cy="1408"></circle><circle r="6" cx="95" cy="481"></circle><circle r="2" cx="177" cy="18"></circle><circle r="9" cx="447" cy="1516"></circle><circle r="9" cx="400" cy="741"></circle><circle r="4" cx="145" cy="1354"></circle><circle r="5" cx="519" cy="1008"></circle><circle r="11" cx="156" cy="602"></circle><circle r="13" cx="242" cy="1875"></circle><circle r="5" cx="344" cy="725"></circle><circle r="9" cx="426" cy="374"></circle><circle r="2" cx="496" cy="1341"></circle><circle r="13" cx="356" cy="1917"></circle><circle r="2" cx="88" cy="1612"></circle><circle r="9" cx="386" cy="914"></circle><circle r="3" cx="486" cy="676"></circle><circle r="15" cx="486" cy="1765"></circle><circle r="5" cx="68" cy="355"></circle><circle r="5" cx="363" cy="1582"></circle><circle r="4" cx="184" cy="272"></circle><circle r="4" cx="222" cy="547"></circle><circle r="5" cx="264" cy="814"></circle><circle r="16" cx="447" cy="1591"></circle><circle r="17" cx="306" cy="943"></circle><circle r="12" cx="58" cy="1130"></circle><circle r="9" cx="36" cy="1004"></circle><circle r="18" cx="21" cy="1594"></circle><circle r="4" cx="118" cy="709"></circle><circle r="14" cx="498" cy="1179"></circle><circle r="15" cx="431" cy="1758"></circle><circle r="8" cx="479" cy="1542"></circle><circle r="7" cx="295" cy="185"></circle><circle r="15" cx="312" cy="891"></circle><circle r="8" cx="473" cy="411"></circle><circle r="1" cx="305" cy="334"></circle><circle r="7" cx="237" cy="762"></circle><circle r="17" cx="525" cy="621"></circle><circle r="17" cx="12" cy="227"></circle><circle r="3" cx="417" cy="541"></circle><circle r="14" cx="284" cy="1993"></circle><circle r="3" cx="127" cy="1958"></circle><circle r="14" cx="1" cy="1919"></circle><circle r="18" cx="535" cy="330"></circle><circle r="13" cx="25" cy="1469"></circle><circle r="18" cx="6" cy="413"></circle><circle r="16" cx="290" cy="704"></circle><circle r="7" cx="302" cy="1380"></circle><circle r="1" cx="94" cy="744"></circle><circle r="1" cx="259" cy="401"></circle><circle r="12" cx="143" cy="418"></circle><circle r="14" cx="163" cy="1682"></circle><circle r="13" cx="76" cy="996"></circle><circle r="18" cx="192" cy="913"></circle><circle r="2" cx="215" cy="1344"></circle><circle r="12" cx="299" cy="1667"></circle><circle r="10" cx="507" cy="873"></circle><circle r="14" cx="344" cy="141"></circle><circle r="4" cx="494" cy="342"></circle><circle r="17" cx="30" cy="144"></circle><circle r="9" cx="212" cy="1633"></circle><circle r="6" cx="387" cy="466"></circle><circle r="10" cx="99" cy="1744"></circle><circle r="17" cx="57" cy="1301"></circle><circle r="17" cx="495" cy="509"></circle><circle r="9" cx="296" cy="50"></circle><circle r="4" cx="477" cy="1891"></circle><circle r="9" cx="353" cy="1381"></circle><circle r="17" cx="463" cy="1705"></circle><circle r="6" cx="190" cy="424"></circle><circle r="1" cx="43" cy="1383"></circle><circle r="13" cx="325" cy="226"></circle><circle r="3" cx="382" cy="1479"></circle><circle r="12" cx="1" cy="326"></circle><circle r="17" cx="280" cy="141"></circle><circle r="9" cx="270" cy="1345"></circle><circle r="3" cx="530" cy="446"></circle><circle r="11" cx="499" cy="1945"></circle><circle r="1" cx="137" cy="793"></circle><circle r="5" cx="315" cy="986"></circle><circle r="11" cx="322" cy="546"></circle><circle r="9" cx="6" cy="1430"></circle><circle r="11" cx="252" cy="961"></circle><circle r="1" cx="224" cy="263"></circle><circle r="6" cx="423" cy="93"></circle><circle r="8" cx="100" cy="1799"></circle><circle r="15" cx="176" cy="368"></circle><circle r="5" cx="83" cy="1915"></circle><circle r="15" cx="341" cy="7"></circle><circle r="5" cx="65" cy="1702"></circle><circle r="4" cx="348" cy="1151"></circle><circle r="7" cx="140" cy="1569"></circle><circle r="4" cx="191" cy="802"></circle><circle r="1" cx="140" cy="749"></circle><circle r="2" cx="63" cy="105"></circle><circle r="6" cx="433" cy="1125"></circle><circle r="10" cx="61" cy="1581"></circle><circle r="4" cx="410" cy="1885"></circle><circle r="3" cx="260" cy="83"></circle><circle r="15" cx="508" cy="1812"></circle><circle r="9" cx="417" cy="641"></circle><circle r="3" cx="449" cy="1365"></circle><circle r="2" cx="151" cy="1395"></circle><circle r="13" cx="290" cy="744"></circle><circle r="16" cx="471" cy="1451"></circle><circle r="16" cx="278" cy="281"></circle><circle r="9" cx="271" cy="1587"></circle><circle r="13" cx="151" cy="1762"></circle><circle r="6" cx="131" cy="660"></circle><circle r="11" cx="384" cy="125"></circle><circle r="10" cx="115" cy="1842"></circle><circle r="3" cx="31" cy="1168"></circle><circle r="5" cx="360" cy="1660"></circle><circle r="9" cx="503" cy="241"></circle><circle r="2" cx="129" cy="1491"></circle><circle r="12" cx="150" cy="179"></circle><circle r="17" cx="381" cy="1309"></circle><circle r="17" cx="432" cy="1429"></circle><circle r="5" cx="258" cy="1634"></circle><circle r="11" cx="515" cy="1386"></circle><circle r="2" cx="68" cy="233"></circle><circle r="14" cx="32" cy="450"></circle><circle r="17" cx="32" cy="1524"></circle><circle r="4" cx="418" cy="500"></circle><circle r="14" cx="27" cy="548"></circle><circle r="14" cx="529" cy="1215"></circle><circle r="7" cx="323" cy="1278"></circle><circle r="17" cx="350" cy="486"></circle><circle r="9" cx="536" cy="1067"></circle><circle r="14" cx="381" cy="1622"></circle><circle r="16" cx="376" cy="1784"></circle><circle r="1" cx="142" cy="98"></circle><circle r="11" cx="121" cy="212"></circle><circle r="4" cx="2" cy="514"></circle><circle r="8" cx="71" cy="1342"></circle><circle r="5" cx="536" cy="1559"></circle><circle r="12" cx="523" cy="832"></circle><circle r="2" cx="224" cy="828"></circle><circle r="9" cx="99" cy="604"></circle><circle r="16" cx="297" cy="1143"></circle><circle r="13" cx="204" cy="155"></circle><circle r="11" cx="238" cy="1205"></circle><circle r="7" cx="119" cy="302"></circle><circle r="10" cx="346" cy="1024"></circle><circle r="11" cx="113" cy="1655"></circle><circle r="11" cx="372" cy="531"></circle><circle r="4" cx="161" cy="689"></circle><circle r="6" cx="511" cy="1458"></circle><circle r="3" cx="27" cy="1991"></circle><circle r="5" cx="184" cy="1314"></circle><circle r="13" cx="346" cy="683"></circle><circle r="18" cx="382" cy="605"></circle><circle r="6" cx="75" cy="297"></circle><circle r="15" cx="59" cy="1965"></circle><circle r="4" cx="101" cy="875"></circle><circle r="15" cx="434" cy="984"></circle><circle r="16" cx="408" cy="1378"></circle><circle r="4" cx="272" cy="1902"></circle><circle r="1" cx="226" cy="1919"></circle><circle r="8" cx="329" cy="1706"></circle><circle r="14" cx="49" cy="404"></circle><circle r="10" cx="347" cy="1506"></circle><circle r="4" cx="253" cy="1955"></circle><circle r="18" cx="25" cy="1850"></circle><circle r="4" cx="101" cy="521"></circle><circle r="16" cx="110" cy="1696"></circle><circle r="15" cx="106" cy="1398"></circle><circle r="10" cx="2" cy="647"></circle><circle r="9" cx="424" cy="315"></circle><circle r="3" cx="283" cy="1298"></circle><circle r="14" cx="82" cy="440"></circle><circle r="12" cx="386" cy="263"></circle><circle r="5" cx="522" cy="1511"></circle><circle r="2" cx="22" cy="934"></circle><circle r="7" cx="220" cy="375"></circle><circle r="2" cx="304" cy="1033"></circle><circle r="11" cx="7" cy="76"></circle><circle r="3" cx="326" cy="1459"></circle><circle r="6" cx="530" cy="966"></circle><circle r="3" cx="349" cy="348"></circle><circle r="11" cx="233" cy="715"></circle><circle r="15" cx="489" cy="1283"></circle><circle r="10" cx="353" cy="957"></circle><circle r="7" cx="139" cy="45"></circle><circle r="2" cx="69" cy="1774"></circle><circle r="12" cx="484" cy="981"></circle><circle r="11" cx="3" cy="4"></circle><circle r="12" cx="73" cy="1192"></circle><circle r="9" cx="241" cy="1405"></circle><circle r="1" cx="536" cy="1843"></circle><circle r="12" cx="525" cy="1978"></circle><circle r="2" cx="347" cy="94"></circle><circle r="16" cx="538" cy="1429"></circle><circle r="7" cx="486" cy="1138"></circle><circle r="1" cx="203" cy="1234"></circle><circle r="5" cx="512" cy="10"></circle><circle r="6" cx="173" cy="233"></circle><circle r="6" cx="531" cy="1777"></circle><circle r="12" cx="54" cy="959"></circle><circle r="18" cx="107" cy="75"></circle><circle r="2" cx="65" cy="1424"></circle><circle r="3" cx="186" cy="961"></circle><circle r="8" cx="138" cy="1073"></circle><circle r="12" cx="397" cy="1059"></circle><circle r="18" cx="93" cy="673"></circle><circle r="8" cx="427" cy="909"></circle><circle r="15" cx="278" cy="1197"></circle><circle r="7" cx="444" cy="863"></circle><circle r="1" cx="361" cy="1190"></circle><circle r="6" cx="358" cy="885"></circle><circle r="10" cx="221" cy="1817"></circle><circle r="12" cx="188" cy="1532"></circle><circle r="18" cx="45" cy="815"></circle><circle r="11" cx="263" cy="338"></circle><circle r="3" cx="416" cy="583"></circle><circle r="16" cx="406" cy="229"></circle><circle r="10" cx="202" cy="681"></circle><circle r="11" cx="174" cy="1727"></circle><circle r="18" cx="61" cy="1652"></circle><circle r="8" cx="188" cy="1901"></circle><circle r="17" cx="87" cy="1495"></circle><circle r="8" cx="321" cy="775"></circle><circle r="9" cx="182" cy="1433"></circle><circle r="12" cx="535" cy="505"></circle><circle r="1" cx="143" cy="923"></circle><circle r="16" cx="478" cy="164"></circle><circle r="3" cx="63" cy="1814"></circle><circle r="4" cx="495" cy="1056"></circle><circle r="15" cx="463" cy="240"></circle><circle r="14" cx="13" cy="1117"></circle><circle r="2" cx="530" cy="279"></circle><circle r="17" cx="26" cy="358"></circle><circle r="4" cx="42" cy="718"></circle><circle r="11" cx="92" cy="1102"></circle><circle r="2" cx="404" cy="1098"></circle><circle r="12" cx="116" cy="6"></circle><circle r="1" cx="94" cy="1998"></circle><circle r="13" cx="162" cy="1281"></circle><circle r="5" cx="181" cy="1574"></circle><circle r="4" cx="357" cy="55"></circle><circle r="15" cx="4" cy="977"></circle><circle r="6" cx="118" cy="1258"></circle><circle r="15" cx="116" cy="1032"></circle><circle r="6" cx="402" cy="954"></circle><circle r="4" cx="295" cy="374"></circle><circle r="18" cx="429" cy="12"></circle><circle r="12" cx="186" cy="847"></circle><circle r="14" cx="536" cy="168"></circle><circle r="14" cx="222" cy="61"></circle><circle r="9" cx="524" cy="52"></circle><circle r="8" cx="300" cy="91"></circle><circle r="9" cx="257" cy="862"></circle><circle r="2" cx="385" cy="1745"></circle><circle r="17" cx="437" cy="1474"></circle><circle r="18" cx="297" cy="1755"></circle><circle r="15" cx="192" cy="1388"></circle><circle r="10" cx="317" cy="1898"></circle><circle r="14" cx="131" cy="569"></circle><circle r="7" cx="3" cy="1387"></circle><circle r="9" cx="167" cy="132"></circle><circle r="5" cx="43" cy="1914"></circle><circle r="17" cx="446" cy="1856"></circle><circle r="4" cx="104" cy="933"></circle><circle r="9" cx="365" cy="1855"></circle><circle r="13" cx="256" cy="1528"></circle><circle r="18" cx="164" cy="1807"></circle><circle r="4" cx="8" cy="183"></circle><circle r="9" cx="365" cy="229"></circle><circle r="7" cx="312" cy="654"></circle><circle r="3" cx="436" cy="824"></circle><circle r="12" cx="101" cy="1879"></circle><circle r="17" cx="370" cy="817"></circle><circle r="18" cx="392" cy="339"></circle><circle r="6" cx="238" cy="1997"></circle><circle r="10" cx="532" cy="1256"></circle><circle r="12" cx="212" cy="992"></circle><circle r="3" cx="361" cy="1112"></circle><circle r="10" cx="185" cy="463"></circle><circle r="5" cx="242" cy="1311"></circle><circle r="18" cx="41" cy="319"></circle><circle r="7" cx="32" cy="618"></circle><circle r="4" cx="231" cy="430"></circle><circle r="5" cx="6" cy="1738"></circle><circle r="16" cx="385" cy="1999"></circle><circle r="10" cx="473" cy="792"></circle><circle r="5" cx="459" cy="481"></circle><circle r="16" cx="177" cy="1945"></circle><circle r="18" cx="492" cy="716"></circle><circle r="15" cx="537" cy="1344"></circle><circle r="16" cx="1" cy="1555"></circle><circle r="10" cx="347" cy="1422"></circle><circle r="8" cx="3" cy="1807"></circle><circle r="14" cx="11" cy="791"></circle><circle r="4" cx="72" cy="1533"></circle><circle r="5" cx="392" cy="1942"></circle><circle r="11" cx="538" cy="1738"></circle><circle r="10" cx="206" cy="1167"></circle><circle r="13" cx="485" cy="1849"></circle><circle r="5" cx="294" cy="6"></circle><circle r="7" cx="303" cy="507"></circle><circle r="1" cx="427" cy="1028"></circle><circle r="14" cx="47" cy="1739"></circle><circle r="2" cx="383" cy="380"></circle></g></svg>