<svg xmlns="http://www.w3.org/2000/svg" viewBox="0 0 98.75 49.92"><defs><style>.cls-1{fill:#1A202C;}.cls-2{fill:none;}</style></defs><g id="Layer_2" data-name="Layer 2"><g id="Layer_1-2" data-name="Layer 1"><path class="cls-1" d="M41.09,31.28a3.14,3.14,0,0,0-1.29-2.34,5.05,5.05,0,0,0-3.08-.84,6.08,6.08,0,0,0-2.23.37,3.16,3.16,0,0,0-1.39,1A2.4,2.4,0,0,0,32.62,31a2.13,2.13,0,0,0,.29,1.19,3,3,0,0,0,.88.88,6.3,6.3,0,0,0,1.3.64,11.56,11.56,0,0,0,1.57.45l2.29.55a15.79,15.79,0,0,1,3.07,1,9.61,9.61,0,0,1,2.42,1.53A6.48,6.48,0,0,1,46,39.35a6.81,6.81,0,0,1,.58,2.83,7.08,7.08,0,0,1-1.19,4A7.61,7.61,0,0,1,42,48.89a13.55,13.55,0,0,1-5.33.94,13.83,13.83,0,0,1-5.38-.95,7.8,7.8,0,0,1-3.57-2.81,8.32,8.32,0,0,1-1.34-4.62h5.23a3.84,3.84,0,0,0,.74,2.14,4,4,0,0,0,1.76,1.29,6.93,6.93,0,0,0,2.5.43,6.59,6.59,0,0,0,2.38-.4A3.69,3.69,0,0,0,40.6,43.8a2.61,2.61,0,0,0,.56-1.64,2.16,2.16,0,0,0-.5-1.44,4.08,4.08,0,0,0-1.47-1A16.72,16.72,0,0,0,36.82,39L34,38.27a11.69,11.69,0,0,1-5.1-2.45,5.7,5.7,0,0,1-1.85-4.5,6.6,6.6,0,0,1,1.24-4.05,8.23,8.23,0,0,1,3.44-2.71,12.21,12.21,0,0,1,5-1,11.82,11.82,0,0,1,5,1A7.83,7.83,0,0,1,45,27.27a7.09,7.09,0,0,1,1.22,4Z"/><path class="cls-1" d="M96.3,8.43a2.44,2.44,0,0,1-1.73-.67,2.11,2.11,0,0,1-.72-1.62,2.15,2.15,0,0,1,.73-1.62,2.44,2.44,0,0,1,1.72-.68A2.49,2.49,0,0,1,98,4.51a2.13,2.13,0,0,1,.71,1.62A2.14,2.14,0,0,1,98,7.76,2.45,2.45,0,0,1,96.3,8.43Z"/><path class="cls-2" d="M96.3,8.43a2.44,2.44,0,0,1-1.73-.67,2.11,2.11,0,0,1-.72-1.62,2.15,2.15,0,0,1,.73-1.62,2.44,2.44,0,0,1,1.72-.68A2.49,2.49,0,0,1,98,4.51a2.13,2.13,0,0,1,.71,1.62A2.14,2.14,0,0,1,98,7.76,2.45,2.45,0,0,1,96.3,8.43Z"/><path class="cls-1" d="M96.3,8.43a2.44,2.44,0,0,1-1.73-.67,2.11,2.11,0,0,1-.72-1.62,2.15,2.15,0,0,1,.73-1.62,2.44,2.44,0,0,1,1.72-.68A2.49,2.49,0,0,1,98,4.51a2.13,2.13,0,0,1,.71,1.62A2.14,2.14,0,0,1,98,7.76,2.45,2.45,0,0,1,96.3,8.43Z"/><path class="cls-1" d="M74.21,25.92a8.42,8.42,0,0,1-4.29-1.06,7.22,7.22,0,0,1-2.78-3,9.56,9.56,0,0,1-1-4.42,9.62,9.62,0,0,1,1-4.44,7.16,7.16,0,0,1,2.78-3,9.21,9.21,0,0,1,8.58,0,7.24,7.24,0,0,1,2.79,3,9.62,9.62,0,0,1,1,4.44,9.56,9.56,0,0,1-1,4.42,7.3,7.3,0,0,1-2.79,3A8.37,8.37,0,0,1,74.21,25.92Zm0-3.52a2.79,2.79,0,0,0,1.89-.64A3.92,3.92,0,0,0,77.26,20a7.66,7.66,0,0,0,.39-2.54,7.76,7.76,0,0,0-.39-2.55,4,4,0,0,0-1.14-1.77,2.8,2.8,0,0,0-1.89-.65,2.89,2.89,0,0,0-1.91.65,4.06,4.06,0,0,0-1.16,1.77,7.76,7.76,0,0,0-.39,2.55A7.66,7.66,0,0,0,71.16,20a4,4,0,0,0,1.16,1.77A2.88,2.88,0,0,0,74.23,22.4Z"/><path class="cls-2" d="M74.21,25.92a8.42,8.42,0,0,1-4.29-1.06,7.22,7.22,0,0,1-2.78-3,9.56,9.56,0,0,1-1-4.42,9.62,9.62,0,0,1,1-4.44,7.16,7.16,0,0,1,2.78-3,9.21,9.21,0,0,1,8.58,0,7.24,7.24,0,0,1,2.79,3,9.62,9.62,0,0,1,1,4.44,9.56,9.56,0,0,1-1,4.42,7.3,7.3,0,0,1-2.79,3A8.37,8.37,0,0,1,74.21,25.92Zm0-3.52a2.79,2.79,0,0,0,1.89-.64A3.92,3.92,0,0,0,77.26,20a7.66,7.66,0,0,0,.39-2.54,7.76,7.76,0,0,0-.39-2.55,4,4,0,0,0-1.14-1.77,2.8,2.8,0,0,0-1.89-.65,2.89,2.89,0,0,0-1.91.65,4.06,4.06,0,0,0-1.16,1.77,7.76,7.76,0,0,0-.39,2.55A7.66,7.66,0,0,0,71.16,20a4,4,0,0,0,1.16,1.77A2.88,2.88,0,0,0,74.23,22.4Z"/><path class="cls-1" d="M74.21,25.92a8.42,8.42,0,0,1-4.29-1.06,7.22,7.22,0,0,1-2.78-3,9.56,9.56,0,0,1-1-4.42,9.62,9.62,0,0,1,1-4.44,7.16,7.16,0,0,1,2.78-3,9.21,9.21,0,0,1,8.58,0,7.24,7.24,0,0,1,2.79,3,9.62,9.62,0,0,1,1,4.44,9.56,9.56,0,0,1-1,4.42,7.3,7.3,0,0,1-2.79,3A8.37,8.37,0,0,1,74.21,25.92Zm0-3.52a2.79,2.79,0,0,0,1.89-.64A3.92,3.92,0,0,0,77.26,20a7.66,7.66,0,0,0,.39-2.54,7.76,7.76,0,0,0-.39-2.55,4,4,0,0,0-1.14-1.77,2.8,2.8,0,0,0-1.89-.65,2.89,2.89,0,0,0-1.91.65,4.06,4.06,0,0,0-1.16,1.77,7.76,7.76,0,0,0-.39,2.55A7.66,7.66,0,0,0,71.16,20a4,4,0,0,0,1.16,1.77A2.88,2.88,0,0,0,74.23,22.4Z"/><path class="cls-1" d="M17.17,8.5a5.45,5.45,0,0,0-.73-1.6A4.73,4.73,0,0,0,15.3,5.72,5,5,0,0,0,13.78,5a6.26,6.26,0,0,0-1.89-.26,6.07,6.07,0,0,0-3.4,1A6.29,6.29,0,0,0,6.22,8.47a11,11,0,0,0-.81,4.46,11.16,11.16,0,0,0,.8,4.49,6.21,6.21,0,0,0,2.26,2.81,6.14,6.14,0,0,0,3.47,1A6.81,6.81,0,0,0,15,20.55a4.54,4.54,0,0,0,2-1.83,5.42,5.42,0,0,0,.69-2.79l1.08.16h-6.5v-4H22.83v3.18A11,11,0,0,1,21.42,21a9.5,9.5,0,0,1-3.87,3.67,12,12,0,0,1-5.64,1.29,12.19,12.19,0,0,1-6.23-1.57A10.75,10.75,0,0,1,1.5,19.88,14.88,14.88,0,0,1,0,13,15.77,15.77,0,0,1,.89,7.51,11.65,11.65,0,0,1,3.4,3.42,10.93,10.93,0,0,1,7.16.88,12,12,0,0,1,11.8,0a12.54,12.54,0,0,1,4,.62,10.77,10.77,0,0,1,3.28,1.76,9.44,9.44,0,0,1,2.35,2.69A9.13,9.13,0,0,1,22.59,8.5Z"/><path class="cls-1" d="M23.81,25.6V9.23h4.4v2.86h.17a4.22,4.22,0,0,1,1.51-2.31A4,4,0,0,1,32.31,9a6.46,6.46,0,0,1,.74,0,5.44,5.44,0,0,1,.69.12v4a5.28,5.28,0,0,0-.88-.17,8,8,0,0,0-1-.08,3.72,3.72,0,0,0-1.78.43,3.32,3.32,0,0,0-1.24,1.2,3.43,3.43,0,0,0-.45,1.77V25.6Z"/><path class="cls-1" d="M61.11,25.69v-3h-.19A4.6,4.6,0,0,1,60,24a4.65,4.65,0,0,1-1.54,1,5.8,5.8,0,0,1-2.24.38,6.7,6.7,0,0,1-3.35-.85,6.05,6.05,0,0,1-2.39-2.64,9.89,9.89,0,0,1-.89-4.49,10.63,10.63,0,0,1,.9-4.64A6.54,6.54,0,0,1,52.94,10,6.14,6.14,0,0,1,56.24,9a5.2,5.2,0,0,1,2.3.46A4.67,4.67,0,0,1,60,10.63,6.59,6.59,0,0,1,60.92,12h.17V9.23H65.6V25.76a5.73,5.73,0,0,1-1,3.49,6.22,6.22,0,0,1-2.82,2.12M57.69,22a3.14,3.14,0,0,0,1.86-.54,3.48,3.48,0,0,0,1.17-1.58,6.55,6.55,0,0,0,.41-2.47,7,7,0,0,0-.4-2.5,3.67,3.67,0,0,0-1.17-1.64,3,3,0,0,0-1.87-.59,3,3,0,0,0-1.88.6,3.73,3.73,0,0,0-1.16,1.67,6.9,6.9,0,0,0-.4,2.46,6.69,6.69,0,0,0,.4,2.45,3.46,3.46,0,0,0,1.16,1.58A3.06,3.06,0,0,0,57.69,22Z"/><path class="cls-1" d="M82.83,31.3V9.23h4.4v2.86h.17a4.26,4.26,0,0,1,1.5-2.31A4,4,0,0,1,91.33,9a6.29,6.29,0,0,1,.73,0,5.31,5.31,0,0,1,.7.12v4a5.43,5.43,0,0,0-.89-.17,7.86,7.86,0,0,0-1-.08,3.69,3.69,0,0,0-1.78.43,3.18,3.18,0,0,0-1.24,1.2,3.43,3.43,0,0,0-.45,1.77v15Z"/><path class="cls-2" d="M82.83,31.3V9.23h4.4v2.86h.17a4.26,4.26,0,0,1,1.5-2.31A4,4,0,0,1,91.33,9a6.29,6.29,0,0,1,.73,0,5.31,5.31,0,0,1,.7.12v4a5.43,5.43,0,0,0-.89-.17,7.86,7.86,0,0,0-1-.08,3.69,3.69,0,0,0-1.78.43,3.18,3.18,0,0,0-1.24,1.2,3.43,3.43,0,0,0-.45,1.77v15Z"/><path class="cls-1" d="M82.83,31.3V9.23h4.4v2.86h.17a4.26,4.26,0,0,1,1.5-2.31A4,4,0,0,1,91.33,9a6.29,6.29,0,0,1,.73,0,5.31,5.31,0,0,1,.7.12v4a5.43,5.43,0,0,0-.89-.17,7.86,7.86,0,0,0-1-.08,3.69,3.69,0,0,0-1.78.43,3.18,3.18,0,0,0-1.24,1.2,3.43,3.43,0,0,0-.45,1.77v15Z"/><polygon class="cls-1" points="46.09 2.28 41.89 2.28 39.63 7.12 42.84 7.12 46.09 2.28"/><path class="cls-1" d="M49.06,18.58V17.33a10.39,10.39,0,0,0-.58-3.65,7.05,7.05,0,0,0-1.64-2.59,6.69,6.69,0,0,0-2.45-1.55,8.52,8.52,0,0,0-3-.52,8,8,0,0,0-4.19,1.07,7.29,7.29,0,0,0-2.77,3,9.61,9.61,0,0,0-1,4.43,9.64,9.64,0,0,0,1,4.48A8.61,8.61,0,0,0,35,23a17,17,0,0,1,1.77-.11,12.61,12.61,0,0,1,5.27,1A9.13,9.13,0,0,1,44.5,25.5a5.81,5.81,0,0,0,.63-.21,6.5,6.5,0,0,0,2.53-1.74A5.78,5.78,0,0,0,49,20.91l-4.2-.28a2.89,2.89,0,0,1-.68,1.05,3.07,3.07,0,0,1-1.08.64,4.34,4.34,0,0,1-1.38.21,3.86,3.86,0,0,1-2-.48,3.2,3.2,0,0,1-1.29-1.36,4.58,4.58,0,0,1-.45-2.1H49.06Zm-9.44-5.7a3.56,3.56,0,0,1,1.83-.47,3.4,3.4,0,0,1,1.74.43A3,3,0,0,1,44.36,14a3.39,3.39,0,0,1,.43,1.73H37.94a3.55,3.55,0,0,1,.44-1.61A3.43,3.43,0,0,1,39.62,12.88Z"/><path class="cls-1" d="M61.11,49V24.34H65.6l.05,11.08h.14a6.13,6.13,0,0,1,.87-1.35,4.6,4.6,0,0,1,1.49-1.15,5.07,5.07,0,0,1,2.3-.46,6.19,6.19,0,0,1,3.3.93,6.51,6.51,0,0,1,2.42,2.8,10.79,10.79,0,0,1,.9,4.68,10.79,10.79,0,0,1-.88,4.62,6.54,6.54,0,0,1-2.38,2.84,6.08,6.08,0,0,1-3.37,1,5.28,5.28,0,0,1-2.25-.44,4.64,4.64,0,0,1-1.5-1.1,5.21,5.21,0,0,1-.9-1.35h-.2V49Zm4.45-8.18A7.34,7.34,0,0,0,66,43.4a3.83,3.83,0,0,0,1.17,1.69,3,3,0,0,0,1.87.6,2.89,2.89,0,0,0,1.87-.62A3.75,3.75,0,0,0,72,43.37a7.24,7.24,0,0,0,.4-2.52,7.07,7.07,0,0,0-.4-2.49,3.74,3.74,0,0,0-1.16-1.69,3.27,3.27,0,0,0-3.75,0A3.66,3.66,0,0,0,66,38.32,7.15,7.15,0,0,0,65.56,40.85Z"/><path class="cls-1" d="M85.76,49.35a8.63,8.63,0,0,1-4.34-1,6.9,6.9,0,0,1-2.8-2.91,9.7,9.7,0,0,1-1-4.48,9.62,9.62,0,0,1,1-4.44,7.22,7.22,0,0,1,2.77-3,8,8,0,0,1,4.19-1.06,8.78,8.78,0,0,1,3,.51,6.91,6.91,0,0,1,2.45,1.55,7.07,7.07,0,0,1,1.63,2.6,10.35,10.35,0,0,1,.59,3.65V42H79.45V39.2H89a3.56,3.56,0,0,0-.43-1.74,3,3,0,0,0-1.18-1.18,3.41,3.41,0,0,0-1.74-.44,3.47,3.47,0,0,0-1.83.48,3.43,3.43,0,0,0-1.24,1.27,3.57,3.57,0,0,0-.45,1.76V42a4.58,4.58,0,0,0,.45,2.1,3.26,3.26,0,0,0,1.28,1.37,4,4,0,0,0,2,.47,4.36,4.36,0,0,0,1.39-.21,2.69,2.69,0,0,0,1.07-.64,2.79,2.79,0,0,0,.69-1l4.19.27A5.66,5.66,0,0,1,91.87,47a6.59,6.59,0,0,1-2.54,1.75A9.6,9.6,0,0,1,85.76,49.35Z"/><path class="cls-1" d="M65.6,49H61.13"/><path class="cls-1" d="M94,49.92V9.23h4.53V49.92Z"/><path class="cls-2" d="M94,49.92V9.23h4.53V49.92Z"/><path class="cls-1" d="M94,49.92V9.23h4.53V49.92Z"/><path class="cls-1" d="M76.49,21.75h0a0,0,0,0,1,0,0V36.32a0,0,0,0,1,0,0h0a4.54,4.54,0,0,1-4.54-4.54V26.29A4.54,4.54,0,0,1,76.49,21.75Z" transform="translate(45.18 103.25) rotate(-90)"/><path class="cls-1" d="M61.13,22.4l4.21,8.9h-10a4.53,4.53,0,0,1-4.54-4.53h8.08a2.26,2.26,0,0,0,2.26-2.23Z"/><path class="cls-1" d="M50.69,49.34a6.65,6.65,0,0,1-2.79-.55A4.42,4.42,0,0,1,46,47.16a4.84,4.84,0,0,1-.71-2.7,4.7,4.7,0,0,1,.51-2.29,4,4,0,0,1,1.36-1.49,6.39,6.39,0,0,1,2-.85,15,15,0,0,1,2.31-.41c1-.1,1.72-.19,2.3-.28a3.15,3.15,0,0,0,1.27-.4.9.9,0,0,0,.4-.79v-.06a2,2,0,0,0-.64-1.57,2.63,2.63,0,0,0-1.79-.55,3.18,3.18,0,0,0-1.95.54,2.48,2.48,0,0,0-1,1.34l-4.2-.34a5.68,5.68,0,0,1,1.26-2.58,6,6,0,0,1,2.42-1.68A9.17,9.17,0,0,1,53,32.46a10.14,10.14,0,0,1,2.61.32,6.75,6.75,0,0,1,2.23,1,4.81,4.81,0,0,1,1.54,1.72A5.17,5.17,0,0,1,59.9,38V49H55.6V46.76h-.13a4.56,4.56,0,0,1-1,1.35,4.76,4.76,0,0,1-1.59.91A6.64,6.64,0,0,1,50.69,49.34ZM52,46.21a3.73,3.73,0,0,0,1.77-.4A3.14,3.14,0,0,0,55,44.73a2.83,2.83,0,0,0,.44-1.55V41.45a3,3,0,0,1-.58.25c-.25.07-.52.14-.83.2l-.92.16-.83.12a5.3,5.3,0,0,0-1.39.38,2.21,2.21,0,0,0-.93.68,1.73,1.73,0,0,0-.33,1.07,1.62,1.62,0,0,0,.68,1.41A2.83,2.83,0,0,0,52,46.21Z"/></g></g></svg>